<?xml version="1.0" encoding="UTF-8"?>
<svg xmlns="http://www.w3.org/2000/svg" viewBox="0 0 700 420" width="700" height="420">
  <defs>
    <linearGradient id="bg" x1="0%" y1="0%" x2="100%" y2="100%">
      <stop offset="0%" stop-color="#0d1117"/>
      <stop offset="100%" stop-color="#161b22"/>
    </linearGradient>
  </defs>
  <rect width="700" height="420" fill="url(#bg)"/>
  
    
  <rect x="40" y="50" width="300" height="130" rx="8" fill="#21262d" stroke="#30363d"/>
  <rect x="40" y="50" width="300" height="28" rx="8" fill="#161b22"/>
  <circle cx="56" cy="64" r="5" fill="#f85149" opacity="0.8"/>
  <circle cx="72" cy="64" r="5" fill="#d29922" opacity="0.8"/>
  <circle cx="88" cy="64" r="5" fill="#3fb950" opacity="0.8"/>
  <text x="190" y="68" text-anchor="middle" fill="#6e7681" font-size="10" font-family="'SF Mono', Menlo, Monaco, 'Courier New', monospace">debug.ts</text>
  <text x="52" y="98" fill="#e6edf3" font-size="11" font-family="'SF Mono', Menlo, Monaco, 'Courier New', monospace">async function fetch() {</text><text x="52" y="116" fill="#39c5cf" font-size="11" font-family="'SF Mono', Menlo, Monaco, 'Courier New', monospace">  const res = await api.get();</text><text x="52" y="134" fill="#e6edf3" font-size="11" font-family="'SF Mono', Menlo, Monaco, 'Courier New', monospace">  return res.data;</text><text x="52" y="152" fill="#e6edf3" font-size="11" font-family="'SF Mono', Menlo, Monaco, 'Courier New', monospace">}</text>

    
  <rect x="360" y="50" width="300" height="130" rx="8" fill="#0d1117" stroke="#3fb950"/>
  <text x="372" y="70" fill="#3fb950" font-size="11" font-family="'SF Mono', Menlo, Monaco, 'Courier New', monospace">$ terminal</text>
  <text x="372" y="94" fill="#e6edf3" font-size="11" font-family="'SF Mono', Menlo, Monaco, 'Courier New', monospace">node debug.ts</text><text x="372" y="112" fill="#f85149" font-size="11" font-family="'SF Mono', Menlo, Monaco, 'Courier New', monospace">TypeError: Cannot read undefined</text><text x="372" y="130" fill="#f85149" font-size="11" font-family="'SF Mono', Menlo, Monaco, 'Courier New', monospace">    at fetch (debug.ts:2)</text>

    
  <rect x="150" y="220" width="120" height="80" rx="12" fill="#161b22" stroke="#f85149" stroke-width="2"/>
  <g transform="translate(196, 246) scale(1.1666666666666667)">
    <path d="M12 9v4m0 4h.01M12 2L2 22h20L12 2z" fill="none" stroke="#f85149" stroke-width="2" stroke-linecap="round" stroke-linejoin="round"/>
  </g>
  <text x="210" y="284" text-anchor="middle" fill="#e6edf3" font-size="12" font-family="'SF Mono', Menlo, Monaco, 'Courier New', monospace">Bug Found</text>
  

    
  <rect x="430" y="220" width="120" height="80" rx="12" fill="#161b22" stroke="#3fb950" stroke-width="2"/>
  <g transform="translate(476, 246) scale(1.1666666666666667)">
    <path d="M20 6L9 17l-5-5" fill="none" stroke="#3fb950" stroke-width="2" stroke-linecap="round" stroke-linejoin="round"/>
  </g>
  <text x="490" y="284" text-anchor="middle" fill="#e6edf3" font-size="12" font-family="'SF Mono', Menlo, Monaco, 'Courier New', monospace">Fixed</text>
  

    
  <defs><marker id="ah270260" markerWidth="8" markerHeight="8" refX="7" refY="4" orient="auto">
    <path d="M0,0 L8,4 L0,8 Z" fill="#d29922"/>
  </marker></defs>
  <line x1="270" y1="260" x2="430" y2="260" stroke="#d29922" stroke-width="2"  marker-end="url(#ah270260)"/>
  <rect x="325" y="250" width="50" height="20" rx="4" fill="#161b22"/>
  <text x="350" y="264" text-anchor="middle" fill="#8b949e" font-size="10" font-family="'SF Mono', Menlo, Monaco, 'Courier New', monospace">debug</text>
    
  <circle cx="280" cy="340" r="6" fill="#3fb950"/>
  <text x="294" y="344" fill="#e6edf3" font-size="11" font-family="'SF Mono', Menlo, Monaco, 'Courier New', monospace">Issue resolved</text>
    
  <rect x="30" y="362" width="640" height="50" rx="8" fill="#161b22" stroke="#30363d"/>
  <text x="350" y="384" text-anchor="middle" fill="#e6edf3" font-size="11" font-family="'SF Mono', Menlo, Monaco, 'Courier New', monospace">The Vanishing CPU: A ClickHouse Case Study on Debugging with</text><text x="350" y="400" text-anchor="middle" fill="#e6edf3" font-size="11" font-family="'SF Mono', Menlo, Monaco, 'Courier New', monospace">Kernel Memory Reclaim in the Clouds</text>
  
</svg>